<?xml version="1.0" encoding="utf-8"?>
<!-- Generator: Adobe Illustrator 17.1.0, SVG Export Plug-In . SVG Version: 6.00 Build 0)  -->
<!DOCTYPE svg PUBLIC "-//W3C//DTD SVG 1.1//EN" "http://www.w3.org/Graphics/SVG/1.1/DTD/svg11.dtd">
<svg version="1.1" id="Layer_1" xmlns="http://www.w3.org/2000/svg" xmlns:xlink="http://www.w3.org/1999/xlink" x="0px" y="0px"
	 viewBox="0 0 113.2 23.9" enable-background="new 0 0 113.2 23.9" xml:space="preserve">
<g>
	<path fill="#F2F2F2" d="M87.6,15.4c0,5.4-3.5,8.6-7.5,8.6h0c-4,0-7.5-3.2-7.5-8.6l0,0c0-5.4,3.5-8.6,7.5-8.6h0
		C84.1,6.8,87.6,10,87.6,15.4 M75.9,15.4c0,2.9,1.9,5.2,4.1,5.2c2.3,0,4.1-2.3,4.1-5.2c0-2.9-1.9-5.2-4.1-5.2
		C77.8,10.2,75.9,12.5,75.9,15.4z"/>
	<circle fill="#F2F2F2" cx="56" cy="22.1" r="1.9"/>
	<path fill="#ED0677" d="M3.8,1.9c0-1-0.8-1.9-1.9-1.9C0.8,0,0,0.8,0,1.9v20.2c0,1,0.8,1.9,1.9,1.9c1,0,1.9-0.9,1.9-1.9v-8
		c0-2,1.6-3.5,3.5-3.5c2,0,3.5,1.6,3.5,3.5v8c0,1,0.8,1.9,1.9,1.9c1.1,0,1.9-0.9,1.9-1.9v-8c0-4-3.3-7.3-7.3-7.3
		c-1.3,0-2.5,0.3-3.5,0.9V1.9z"/>
	<path fill="#ED0677" d="M30.3,13.8c0-1.8,1.4-3.2,3.2-3.2c1.8,0,3.2,1.4,3.2,3.2v8.3c0,1,0.8,1.9,1.9,1.9c1,0,1.9-0.9,1.9-1.9v-8.3
		c0-3.9-3.1-7-7-7c-2,0-3.8,0.8-5.1,2.2c-1.3-1.4-3.1-2.2-5.1-2.2c-3.9,0-7,3.1-7,7v8.3c0,1,0.8,1.9,1.9,1.9c1,0,1.9-0.9,1.9-1.9
		v-8.3c0-1.8,1.4-3.2,3.2-3.2c1.8,0,3.2,1.4,3.2,3.2v8.3c0,1,0.9,1.9,1.9,1.9c1,0,1.9-0.9,1.9-1.9V13.8z"/>
	<path fill="#ED0677" d="M55.2,6.9c-1-0.4-2.1,0-2.5,1c0,0-2.3,6.3-4,10.2c-1.7-3.9-4-10.2-4-10.2c-0.4-1-1.5-1.4-2.5-1
		c-1,0.4-1.4,1.5-1,2.5l5.8,13.4c0.3,0.7,1,1.1,1.7,1.1c0.8,0,1.4-0.5,1.7-1.1l5.8-13.4C56.6,8.5,56.1,7.3,55.2,6.9"/>
	<path fill="#ED0677" d="M42.1,6.9c1-0.4,2.1,0,2.5,1c0,0,2.3,6.3,4,10.2c1.7-3.9,4-10.2,4-10.2c0.4-1,1.5-1.4,2.5-1
		c1,0.4,1.4,1.5,1,2.5l-5.8,13.4c-0.3,0.7-1,1.1-1.7,1.1c-0.8,0-1.4-0.5-1.7-1.1L41.1,9.4C40.7,8.5,41.2,7.3,42.1,6.9"/>
	<path fill="#F2F2F2" d="M103,13.8c0-1.8,1.4-3.2,3.2-3.2c1.8,0,3.2,1.4,3.2,3.2v8.3c0,1,0.8,1.9,1.9,1.9c1,0,1.9-0.9,1.9-1.9v-8.3
		c0-3.9-3.1-7-7-7c-2,0-3.8,0.8-5.1,2.2C99.8,7.6,98,6.8,96,6.8c-3.9,0-7,3.1-7,7v8.3c0,1,0.8,1.9,1.9,1.9c1,0,1.9-0.9,1.9-1.9v-8.3
		c0-1.8,1.4-3.2,3.2-3.2c1.8,0,3.2,1.4,3.2,3.2v8.3c0,1,0.9,1.9,1.9,1.9c1,0,1.9-0.9,1.9-1.9V13.8z"/>
	<path fill="#231F20" d="M69.1,9.7"/>
	<g>
		<path fill="#F2F2F2" d="M59,15.4c0,5.1,3.2,8.6,7.7,8.6c2.7,0,4.5-1.5,4.5-1.5c0.4-0.3,0.7-0.9,0.7-1.5c0-1-0.8-1.8-1.9-1.8
			c-0.4,0-0.9,0.1-1.2,0.4c0,0-0.9,0.9-2.2,0.9c-2.3,0-4.2-2.3-4.2-5.1c0-2.8,1.8-5.2,4.1-5.2c1.3,0,2.4,0.9,2.4,0.9
			c0.3,0.3,0.7,0.4,1.2,0.4c1,0,1.9-0.8,1.9-1.8c0-0.6-0.3-1.1-0.7-1.5c-0.1-0.1-1.8-1.5-4.5-1.5C62.1,6.8,59,10.3,59,15.4z"/>
	</g>
	<rect x="76.4" y="15.4" fill="#231F20" width="0" height="0"/>
</g>
</svg>
